<svg xmlns="http://www.w3.org/2000/svg" width="1000" height="250" viewBox="0 0 1000 250" role="img" aria-label="Acerca de este material: hecho por un estudiante con IA, sin títulos ni certificados, verifica con la documentación oficial de Meta y avisa de errores"><style>.t{font-family:Segoe UI,Helvetica,Arial,sans-serif}.fl{animation:fl 6s ease-in-out infinite}@keyframes fl{0%,100%{transform:translateY(0)}50%{transform:translateY(-4px)}}
.gl{animation:gl 3s ease-in-out infinite}@keyframes gl{0%,100%{opacity:.55}50%{opacity:1}}</style>
<defs><linearGradient id="bg" x1="0" y1="0" x2="1" y2="1"><stop offset="0" stop-color="#08191c"/><stop offset="1" stop-color="#0b3b40"/></linearGradient></defs><rect width="1000" height="250" rx="22" fill="url(#bg)"/><g class="t" text-anchor="middle"><g class="fl" style="animation-delay:0.0s"><rect x="30" y="26" width="296" height="198" rx="18" fill="#0a1214" stroke="#14b8a6" stroke-opacity=".6"/>
<rect x="70" y="26" width="216" height="4" rx="2" fill="#14b8a6"/>
<circle cx="178" cy="70" r="26" fill="#14b8a6" fill-opacity=".2" stroke="#14b8a6"/><text x="178" y="80" font-size="26">🎓</text>
<text x="178" y="116" font-size="18" font-weight="700" fill="#fff">Un estudiante</text><text x="178" y="136" font-size="13" fill="#99f6e4">con ayuda de IA</text>
<line x1="90" y1="152" x2="266" y2="152" stroke="#14b8a6" stroke-opacity=".3"/>
<text x="178" y="177" font-size="12.5" fill="#cbd5e1">Aporte gratuito a la</text><text x="178" y="197" font-size="12.5" fill="#cbd5e1">comunidad de desarrolladores</text></g>
<g class="fl" style="animation-delay:0.6s"><rect x="352" y="26" width="296" height="198" rx="18" fill="#0a1214" stroke="#f59e0b" stroke-opacity=".6"/>
<rect x="392" y="26" width="216" height="4" rx="2" fill="#f59e0b"/>
<circle cx="500" cy="70" r="26" fill="#f59e0b" fill-opacity=".2" stroke="#f59e0b"/><text x="500" y="80" font-size="26">📜</text>
<text x="500" y="116" font-size="18" font-weight="700" fill="#fff">Sin títulos</text><text x="500" y="136" font-size="13" fill="#99f6e4">ni certificados</text>
<line x1="412" y1="152" x2="588" y2="152" stroke="#f59e0b" stroke-opacity=".3"/>
<text x="500" y="177" font-size="12.5" fill="#cbd5e1">No es un curso oficial</text><text x="500" y="197" font-size="12.5" fill="#cbd5e1">y puede tener errores</text></g>
<g class="fl" style="animation-delay:1.2s"><rect x="674" y="26" width="296" height="198" rx="18" fill="#0a1214" stroke="#38bdf8" stroke-opacity=".6"/>
<rect x="714" y="26" width="216" height="4" rx="2" fill="#38bdf8"/>
<circle cx="822" cy="70" r="26" fill="#38bdf8" fill-opacity=".2" stroke="#38bdf8"/><text x="822" y="80" font-size="26">🔍</text>
<text x="822" y="116" font-size="18" font-weight="700" fill="#fff">Verifica y avisa</text><text x="822" y="136" font-size="13" fill="#99f6e4">docs oficiales de Meta</text>
<line x1="734" y1="152" x2="910" y2="152" stroke="#38bdf8" stroke-opacity=".3"/>
<text x="822" y="177" font-size="12.5" fill="#cbd5e1">Los datos de Meta cambian: contrasta</text><text x="822" y="197" font-size="12.5" fill="#cbd5e1">y avisa de cualquier fallo</text></g>
</g></svg>
